<svg width="34" height="35" viewBox="0 0 34 35" fill="none" xmlns="http://www.w3.org/2000/svg">
<g id="Icon">
<path id="Vector" d="M21.0474 24.6991C23.7314 24.3807 26.3195 23.7497 28.7743 22.8435C26.7389 20.5841 25.5 17.593 25.5 14.3125V13.3197C25.5002 13.2965 25.5002 13.2732 25.5002 13.25C25.5002 8.55558 21.6947 4.75 17.0002 4.75C12.3058 4.75 8.50024 8.55558 8.50024 13.25L8.49996 14.3125C8.49996 17.593 7.26105 20.5841 5.22559 22.8435C7.68057 23.7498 10.2689 24.3808 12.953 24.6992M21.0474 24.6991C19.7202 24.8565 18.3695 24.9375 17 24.9375C15.6306 24.9375 14.2801 24.8565 12.953 24.6992M21.0474 24.6991C21.1791 25.1091 21.2502 25.5462 21.2502 26C21.2502 28.3472 19.3475 30.25 17.0002 30.25C14.653 30.25 12.7502 28.3472 12.7502 26C12.7502 25.5463 12.8213 25.1091 12.953 24.6992" stroke="white" stroke-width="2" stroke-linecap="round" stroke-linejoin="round"/>
</g>
</svg>
